<svg width="24" height="24" viewBox="0 0 24 24" fill="none" xmlns="http://www.w3.org/2000/svg">
<path d="M18.6306 21.1495L18.7019 21.0475C18.9877 20.6388 19.2917 20.3187 19.577 20.0181L19.595 19.9992C19.595 19.9992 19.595 19.9992 19.595 19.9992C19.98 19.5935 20.3403 19.2132 20.6739 18.6461L20.6749 18.6443C20.7672 18.4892 20.8587 18.3393 20.9494 18.1945M18.6306 21.1495L21.2853 18.4039M18.6306 21.1495L18.6305 21.274L18.6302 21.6042H15.3589M18.6306 21.1495L15.3589 21.6042M20.9494 18.1945C20.9495 18.1943 20.9497 18.194 20.9499 18.1937L21.2853 18.4039M20.9494 18.1945C20.9492 18.1947 20.9491 18.1949 20.949 18.1952L21.2853 18.4039M20.9494 18.1945C21.2848 17.654 21.5091 17.2789 21.5492 16.919L21.5492 16.9182C21.58 16.6471 21.608 15.6263 21.6037 14.5845C21.6016 14.0688 21.5917 13.5584 21.571 13.1456C21.5606 12.9389 21.5478 12.7607 21.5324 12.6205C21.5161 12.4704 21.4998 12.3944 21.4922 12.3721M21.2853 18.4039L21.2897 18.3968C21.6081 17.8838 21.8907 17.4284 21.9426 16.9628C22.0101 16.3665 22.0523 12.7857 21.8666 12.2435M21.4922 12.3721C21.4922 12.3722 21.4923 12.3723 21.4923 12.3724L21.8666 12.2435M21.4922 12.3721C21.4619 12.2849 21.318 12.1606 21.1297 12.165C21.0001 12.1681 20.7621 12.2442 20.6146 12.7268C20.4472 13.2744 20.3911 13.9954 20.338 14.7071L20.338 14.7076L20.3366 14.7257C20.3103 15.0738 20.2841 15.4202 20.2424 15.7178C20.2018 16.008 20.1397 16.3112 20.0128 16.534M21.4922 12.3721C21.4922 12.372 21.4921 12.3719 21.4921 12.3718L21.8666 12.2435M21.8666 12.2435C21.6801 11.702 20.6069 11.398 20.236 12.6111L19.5308 16.7431M15.3589 21.6042V21.2996C15.3943 21.0354 15.4975 20.6527 15.5997 20.2749C15.6451 20.1091 15.6894 19.9462 15.723 19.8074C15.754 19.6791 15.7851 19.5352 15.7893 19.4234L15.3589 21.6042ZM16.2611 18.5271L16.2605 18.5278L16.2455 18.5486C16.2323 18.5672 16.2128 18.5947 16.1893 18.6291C16.142 18.6983 16.0792 18.7938 16.0166 18.8997C15.9534 19.0067 15.8941 19.1182 15.8508 19.2202C15.8045 19.3294 15.7903 19.3963 15.7893 19.4233L16.2611 18.5271ZM16.2611 18.5271L17.8988 16.4781L17.9111 16.4648C17.9261 16.4485 17.9473 16.4252 17.9733 16.3957C18.0252 16.3368 18.0968 16.253 18.1772 16.1512C18.32 15.9704 18.4984 15.7231 18.6428 15.4519C18.683 15.4965 18.7254 15.5555 18.7631 15.6243C18.8147 15.7183 18.8457 15.8091 18.8562 15.8762L19.2473 15.8155M16.2611 18.5271L17.5992 16.2189C17.5992 16.2189 18.0672 15.7285 18.3346 15.1856C18.602 14.6419 19.1713 15.3259 19.2473 15.8155M19.2473 15.8155C19.2743 15.9908 19.2732 16.1363 19.2606 16.2509C19.2131 16.3289 19.1564 16.4178 19.0934 16.5138M19.2473 15.8155L18.8561 15.8758C18.8862 16.0713 18.8711 16.2097 18.8541 16.2901C18.8455 16.3308 18.8362 16.3578 18.8311 16.371C18.8297 16.3746 18.8286 16.3772 18.828 16.3788M19.0934 16.5138L18.8334 16.3687L18.8332 16.3691C18.8333 16.3689 18.8334 16.3687 19.0934 16.5138ZM19.0934 16.5138C19.0927 16.5149 19.092 16.516 19.0913 16.5171C18.921 16.7766 18.7053 17.0876 18.5012 17.3759C18.3443 17.5976 18.1978 17.8009 18.0905 17.9488C18.0369 18.0227 17.9931 18.0827 17.9628 18.1242L17.9279 18.1719L17.9188 18.1842L17.9166 18.1873L17.916 18.1881L17.9159 18.1882L17.9158 18.1883L18.2347 18.4229M18.2347 18.4229L18.5535 18.6575L17.8817 18.2438L18.8261 16.3825L18.828 16.3788M18.2347 18.4229L18.5877 18.602L19.5308 16.7431M18.2347 18.4229L18.5535 18.6575L18.5535 18.6574L18.5537 18.6572L18.5544 18.6563L18.5568 18.653L18.5662 18.6402L18.6019 18.5915C18.6327 18.5493 18.6771 18.4884 18.7314 18.4136C18.8399 18.264 18.9882 18.0581 19.1474 17.8333C19.4609 17.3903 19.8313 16.853 20.0128 16.534M18.828 16.3788C18.8274 16.38 18.8272 16.3805 18.8272 16.3804L18.8288 16.3772L18.8307 16.3736L18.832 16.3713L18.8296 16.3755L18.828 16.3788ZM19.5308 16.7431L19.5325 16.74C19.5355 16.7341 19.539 16.727 19.5429 16.7189C19.5506 16.7025 19.5598 16.6817 19.5695 16.6566C19.589 16.6062 19.6108 16.5384 19.6287 16.4537C19.6333 16.4318 19.6376 16.409 19.6416 16.3851L19.5308 16.7431ZM20.0128 16.534C20.0128 16.5339 20.0129 16.5338 20.0129 16.5337L19.6688 16.338L20.0128 16.534ZM6.33507 21.1492V21.2743V21.6042H9.64117V21.2984C9.57305 20.7397 9.45209 19.7235 9.44089 19.4235L9.44089 19.4234C9.43989 19.3967 9.4258 19.33 9.37927 19.2207C9.33585 19.1187 9.27629 19.0073 9.21283 18.9003C9.15 18.7944 9.08701 18.6989 9.03951 18.6297C9.01588 18.5952 8.99638 18.5677 8.98305 18.5492L8.968 18.5284L8.96739 18.5276L7.32476 16.4785L7.31243 16.4653C7.29735 16.4489 7.2761 16.4256 7.25002 16.3962C7.19794 16.3373 7.12613 16.2535 7.04543 16.1517C6.9018 15.9705 6.7222 15.7224 6.57693 15.4504C6.53606 15.4952 6.49286 15.555 6.45447 15.6248C6.4028 15.7187 6.37172 15.8094 6.36135 15.8762L6.36133 15.8763C6.33098 16.0716 6.34609 16.2097 6.36307 16.2899C6.37166 16.3304 6.38099 16.3574 6.38607 16.3704C6.38745 16.374 6.38853 16.3765 6.38919 16.3781L6.39124 16.3821L7.33845 18.2434L6.66721 18.658L6.98567 18.4229L6.66719 18.6579L6.66714 18.6579L6.66697 18.6576L6.66633 18.6568L6.66389 18.6535L6.65446 18.6407L6.61866 18.5919C6.58772 18.5498 6.5432 18.4889 6.48875 18.4141C6.37988 18.2645 6.23106 18.0586 6.07138 17.8338C5.75667 17.3907 5.38492 16.8532 5.20281 16.5343L5.20265 16.534C5.07575 16.3113 5.01348 16.0083 4.97274 15.718C4.93024 15.4151 4.90387 15.0619 4.87741 14.7076L4.8774 14.7075L6.33507 21.1492ZM6.33507 21.1492L6.26308 21.0467M6.33507 21.1492L6.26308 21.0467M6.26308 21.0467C5.97605 20.6383 5.67154 20.3184 5.38551 20.0178L5.36745 19.9989L5.36706 19.9984M6.26308 21.0467L5.36706 19.9984M5.36706 19.9984C4.98032 19.5932 4.61925 19.2127 4.28433 18.6455L4.28366 18.6443L5.36706 19.9984ZM3.40643 16.9186L3.4065 16.9192C3.44712 17.2791 3.67146 17.6539 4.00804 18.1931C4.00814 18.1932 4.00823 18.1934 4.00833 18.1935L3.67255 18.4032L3.40643 16.9186ZM3.40643 16.9186C3.39324 16.8032 3.39188 16.4978 3.40514 16.0625M3.40643 16.9186L3.40514 16.0625M3.40514 16.0625C3.41801 15.6397 3.44349 15.1238 3.47695 14.6086M3.40514 16.0625L3.47695 14.6086M3.47695 14.6086C3.51043 14.0931 3.55166 13.5818 3.59578 13.1677M3.47695 14.6086L3.59578 13.1677M3.59578 13.1677C3.61787 12.9604 3.64035 12.7806 3.66247 12.6383M3.59578 13.1677L3.66247 12.6383M3.66247 12.6383C3.68581 12.4882 3.70522 12.4041 3.716 12.3726M3.66247 12.6383L3.716 12.3726M3.716 12.3726C3.7462 12.2858 3.89088 12.1606 4.0812 12.165C4.21285 12.1681 4.45155 12.2452 4.59947 12.727C4.76686 13.2747 4.82362 13.9956 4.87737 14.7072L3.716 12.3726ZM18.5544 15.376C18.5544 15.376 18.5548 15.3761 18.5557 15.3765L18.5544 15.376ZM6.66431 15.3762C6.66431 15.3762 6.66391 15.3764 6.66312 15.3767L6.66431 15.3762ZM12.4903 5.52862L12.8517 6.34084L13.2135 5.52878C13.8033 4.20476 14.6982 3.39583 15.8209 3.39583C16.6316 3.39583 17.3643 3.849 17.9099 4.61515C18.4561 5.38216 18.7896 6.43426 18.7896 7.53588C18.7896 9.89002 17.3038 11.9466 15.7441 13.4487C14.9712 14.193 14.1967 14.785 13.615 15.191C13.3244 15.3938 13.0829 15.5495 12.9149 15.6541C12.8905 15.6693 12.8676 15.6834 12.8463 15.6964C12.826 15.6846 12.8042 15.6719 12.781 15.6582C12.6134 15.5593 12.3724 15.4113 12.0825 15.2172C11.5018 14.8285 10.7287 14.2574 9.95715 13.5276C8.40304 12.0576 6.91423 10.0007 6.91423 7.53588C6.91423 6.43388 7.24773 5.38179 7.79392 4.61489C8.33949 3.84887 9.07213 3.39583 9.88289 3.39583C11.0057 3.39583 11.9012 4.20487 12.4903 5.52862Z" stroke="white" stroke-width="0.791667"/>
</svg>
