<svg width="24" height="24" viewBox="0 0 24 24" fill="none" xmlns="http://www.w3.org/2000/svg">
<path fill-rule="evenodd" clip-rule="evenodd" d="M13.7627 2.05789C13.5145 2.13224 13.3094 2.3113 13.1753 2.57054L13.0742 2.76594H11.7314C10.5137 2.76594 10.3851 2.77751 10.3519 2.89019C10.3318 2.95857 10.2472 3.58957 10.1639 4.2925C9.99457 5.72094 9.92283 5.89007 9.48652 5.89007C9.18168 5.89007 9.09794 5.80685 8.21879 4.62977C7.80315 4.07324 7.42877 3.61797 7.3868 3.61797C7.24453 3.61797 5.90428 4.41349 5.90428 4.49791C5.90428 4.54414 6.14478 5.14702 6.43875 5.83781C7.00489 7.16805 7.03565 7.34819 6.73265 7.56027C6.4771 7.73927 6.22496 7.68133 5.02634 7.16812C4.38782 6.89476 3.82004 6.6711 3.76464 6.6711C3.66947 6.6711 2.85019 7.99012 2.85019 8.14335C2.85019 8.18275 3.32592 8.57086 3.9074 9.00575C4.48882 9.44064 5.00233 9.84188 5.04843 9.89741C5.16335 10.0359 5.1647 10.405 5.05077 10.5422C4.88606 10.7406 4.75701 10.7715 3.41839 10.9329C2.69571 11.02 2.08092 11.1272 2.05222 11.1711C1.97587 11.2878 1.98624 12.8328 2.0638 12.8807C2.10002 12.9031 2.74046 12.997 3.48701 13.0893C5.01469 13.2783 5.123 13.3239 5.123 13.7774C5.123 14.1043 5.11825 14.1092 3.95691 14.9742C3.44588 15.3548 2.98471 15.7182 2.93216 15.7816C2.84941 15.8815 2.89323 15.9956 3.25667 16.6271C3.58928 17.205 3.70541 17.3519 3.81394 17.3326C3.88936 17.3192 4.46439 17.0875 5.09182 16.8179C5.71926 16.5482 6.30465 16.3275 6.39273 16.3275C6.64224 16.3275 6.80567 16.4465 6.89061 16.6901C6.96171 16.8938 6.92087 17.0268 6.43087 18.188C6.13512 18.8889 5.90798 19.4999 5.92609 19.5457C5.97481 19.6692 7.26023 20.3837 7.39049 20.3598C7.452 20.3484 7.86054 19.8599 8.29834 19.2741C8.75801 18.6591 9.16641 18.1822 9.26499 18.1456C9.49838 18.0588 9.78795 18.1434 9.9114 18.3345C9.97127 18.4271 10.0824 19.0544 10.1787 19.8422L10.3434 21.1912L11.713 21.2105C13.0823 21.2298 13.0825 21.2298 13.1468 21.3988C13.2422 21.6496 13.5776 21.9308 13.8402 21.9801C14.1754 22.0429 14.4182 21.9601 14.6872 21.6911C14.8882 21.4902 14.9245 21.4034 14.9245 21.1238C14.9245 20.4989 14.593 20.1617 13.9788 20.1617C13.6243 20.1617 13.3529 20.3329 13.1811 20.6649L13.0742 20.8717H11.8686C11.2055 20.8717 10.663 20.8533 10.663 20.8309C10.663 20.7003 10.3692 18.4029 10.3407 18.3103C10.2656 18.0668 9.89542 17.8027 9.57928 17.767C9.08843 17.7117 8.9115 17.8529 8.09854 18.9485C7.69249 19.4957 7.33253 19.9445 7.29858 19.946C7.25022 19.9481 6.46652 19.5073 6.33768 19.4056C6.32213 19.3933 6.52121 18.8954 6.7801 18.2991C7.03899 17.7029 7.27032 17.117 7.29411 16.9971C7.39369 16.4959 6.9316 15.9733 6.38832 15.9728C6.22163 15.9726 5.71379 16.15 4.98997 16.4613L3.85343 16.9501L3.56314 16.4489C3.40348 16.1731 3.29758 15.9256 3.32784 15.8986C3.35809 15.8717 3.82075 15.5231 4.35593 15.124C5.1963 14.4973 5.34496 14.3564 5.44645 14.0907C5.59241 13.7086 5.50306 13.3677 5.18721 13.1021C4.94388 12.8974 4.87711 12.8826 3.45391 12.7193L2.38853 12.5972L2.368 12.0212L2.34755 11.4451L2.58108 11.4044C2.70956 11.382 3.26214 11.3138 3.80903 11.2527C4.98088 11.1219 5.2044 11.0303 5.4152 10.595C5.54596 10.3251 5.55661 10.2421 5.48957 10.0184C5.37891 9.64918 5.34077 9.61162 4.2528 8.80112L3.27606 8.07348L3.49951 7.67409C3.86649 7.01816 3.75669 7.0259 5.02478 7.56638C6.2445 8.08619 6.55672 8.14207 6.88749 7.89981C7.14815 7.70881 7.33864 7.32106 7.29915 7.06162C7.28133 6.94446 7.05539 6.35521 6.79707 5.75211C6.2695 4.52028 6.26176 4.62181 6.9115 4.26041L7.31499 4.03597L8.06324 5.02831C8.47476 5.57411 8.88359 6.07113 8.97173 6.13283C9.1603 6.26482 9.65606 6.28009 9.91566 6.16187C10.2593 6.00538 10.357 5.72371 10.515 4.43451C10.5964 3.77063 10.663 3.20346 10.663 3.1742C10.663 3.14495 11.2068 3.12095 11.8716 3.12095H13.0801L13.1987 3.36953C13.2783 3.53639 13.4187 3.66718 13.626 3.76751C14.0296 3.96276 14.3682 3.90426 14.6886 3.58396C14.8881 3.38451 14.9245 3.29725 14.9245 3.018C14.9245 2.56358 14.763 2.28546 14.4049 2.12286C14.0756 1.97347 14.0525 1.97113 13.7627 2.05789ZM13.6675 2.5175C13.1548 2.87656 13.6476 3.71056 14.23 3.46943C14.7824 3.24073 14.6433 2.41092 14.0525 2.41092C13.9245 2.41092 13.7512 2.45892 13.6675 2.5175ZM17.5006 3.15525C17.0845 3.33602 16.8448 4.00586 17.0554 4.39922C17.1299 4.53824 16.9985 4.72108 16.2273 5.55174L15.9151 5.88801L13.7685 5.90675C11.6755 5.92507 11.6218 5.92912 11.6218 6.06758C11.6218 6.2061 11.6755 6.21008 13.7904 6.22833L15.9589 6.24707L16.7011 6.99161L17.4434 7.73615H18.3832C19.2862 7.73615 19.3263 7.74239 19.4053 7.8959C19.8403 8.74134 20.923 8.6846 21.1759 7.8031C21.4753 6.75957 19.9347 6.17252 19.4701 7.15314L19.3636 7.37808L18.4744 7.37957L17.5851 7.38113L16.9266 6.72002L16.268 6.05891L16.809 5.44197C17.1066 5.10264 17.3718 4.82502 17.3985 4.82502C17.4251 4.82502 17.5499 4.85456 17.6758 4.8907C17.8154 4.93068 17.9971 4.93089 18.1411 4.89113C18.9557 4.66626 19.0642 3.47178 18.2989 3.15219C17.9963 3.02581 17.7967 3.02652 17.5006 3.15525ZM17.659 3.48697C17.3107 3.6774 17.2387 4.03895 17.4866 4.35392C17.7996 4.75182 18.4798 4.49493 18.4735 3.98115C18.4709 3.76616 18.3627 3.60448 18.1431 3.48754C17.9529 3.38629 17.8433 3.38615 17.659 3.48697ZM19.9486 7.11487C19.7707 7.24992 19.676 7.56588 19.7528 7.76796C19.8998 8.15457 20.3761 8.25575 20.6953 7.96811C20.8703 7.81049 20.8601 7.3506 20.6776 7.16812C20.516 7.00659 20.1285 6.97826 19.9486 7.11487ZM14.0114 8.30793C13.8804 8.38781 13.7388 8.54402 13.6969 8.655L13.6208 8.85679L12.1241 8.8898C10.8587 8.91771 10.5671 8.94483 10.2368 9.06518C9.1071 9.47686 8.31474 10.4101 8.09947 11.5827C7.78156 13.3142 9.07763 15.0313 10.8761 15.261C11.169 15.2985 12.0449 15.3301 12.8224 15.3313L14.2362 15.3335L14.7756 15.9114C15.0724 16.2293 15.3428 16.5365 15.3765 16.5942C15.4222 16.672 15.2772 16.8604 14.8114 17.3282L14.1848 17.9575L12.9033 17.9768C11.6756 17.9953 11.6218 18.002 11.6218 18.1381C11.6218 18.2744 11.6757 18.2809 12.9684 18.2995L14.315 18.3189L15.0161 17.6249L15.7172 16.931L16.2803 17.5346C16.7967 18.088 16.8391 18.1558 16.7918 18.3511C16.6514 18.9315 16.9056 19.4509 17.4032 19.5999C18.1518 19.8241 18.8437 19.0306 18.5009 18.341C18.2588 17.854 17.9402 17.7265 17.2301 17.8325C17.1215 17.8487 16.7869 17.535 15.8902 16.576C15.2328 15.8731 14.6181 15.2181 14.5242 15.1205L14.3535 14.9429L12.4154 14.9074L10.4773 14.8719L10.0015 14.6303C9.17472 14.2105 8.62896 13.4686 8.45502 12.5281C8.24599 11.3976 8.91747 10.1039 9.98612 9.57796C10.543 9.30389 11.0613 9.2304 12.4494 9.22863L13.5611 9.22721L13.6973 9.49347C13.8564 9.80468 14.2069 10.008 14.5847 10.0081C14.9172 10.0082 15.3175 9.67808 15.4157 9.32257C15.4836 9.07697 15.4768 9.01988 15.3357 8.64207C15.1717 8.20313 14.4727 8.02683 14.0114 8.30793ZM14.2058 8.58868C14.1426 8.6256 14.0508 8.75241 14.0019 8.87049C13.7759 9.41601 14.4099 9.87525 14.8794 9.50604C15.2712 9.19796 15.0286 8.5142 14.5293 8.51931C14.4146 8.52052 14.2691 8.55169 14.2058 8.58868ZM18.1398 10.2555C17.7219 10.4371 17.4944 11.0544 17.7021 11.4425C17.7718 11.5728 17.72 11.6502 17.244 12.126L16.7073 12.6626L15.5838 12.6435C14.2789 12.6213 14.0549 12.6559 14.0861 12.8748C14.1069 13.0203 14.1476 13.0266 15.1758 13.0454L16.244 13.0649L17.2346 14.0572L18.2253 15.0495L19.1851 15.051L20.1449 15.0525L20.2514 15.2774C20.4096 15.6113 20.6872 15.7831 21.0682 15.7831C21.4601 15.7831 21.7236 15.6122 21.9101 15.237C22.2519 14.5493 21.5611 13.7539 20.8157 13.9772C20.5416 14.0593 20.1804 14.4096 20.1804 14.5934C20.1804 14.6755 20.0106 14.6944 19.2737 14.6944H18.3669L17.5704 13.8957L16.7739 13.0969L17.3659 12.5184L17.9579 11.94L18.4286 11.9778L18.8994 12.0156L19.1848 11.7303C19.4309 11.4842 19.4701 11.4025 19.4699 11.1349C19.4695 10.7385 19.2568 10.3856 18.9382 10.2525C18.6355 10.1261 18.4359 10.1268 18.1398 10.2555ZM18.2886 10.5883C18.1258 10.6671 17.9786 10.9282 17.9786 11.138C17.9786 11.209 18.0449 11.3513 18.1258 11.4542C18.2393 11.5986 18.3356 11.6413 18.5468 11.6413C19.1346 11.6413 19.3416 10.8758 18.8258 10.6091C18.5948 10.4897 18.4999 10.486 18.2886 10.5883ZM10.8535 10.6779C10.6323 10.7373 10.4116 10.8672 10.229 11.0455C9.65706 11.6037 9.61884 12.486 10.1415 13.0645C10.4588 13.4155 10.7778 13.5584 11.2446 13.5584C12.0363 13.5584 12.6442 13.0129 12.7079 12.2455C12.7975 11.1645 11.8923 10.3992 10.8535 10.6779ZM10.6668 11.156C9.75535 11.7753 10.1364 13.2034 11.2132 13.2034C11.8534 13.2034 12.2929 12.82 12.3515 12.2103C12.4164 11.5349 12.0059 11.0662 11.3068 11.0173C10.9808 10.9945 10.8687 11.0188 10.6668 11.156ZM20.8196 14.3603C20.5553 14.4939 20.4471 14.7654 20.5455 15.0478C20.7078 15.5132 21.3743 15.5507 21.5618 15.1049C21.6876 14.8059 21.617 14.5602 21.3605 14.4038C21.1003 14.2452 21.0545 14.2415 20.8196 14.3603ZM17.426 18.2126C16.9949 18.3938 17.0167 19.0462 17.4598 19.2297C17.8441 19.3888 18.2201 19.1284 18.2201 18.703C18.2201 18.2704 17.8428 18.0374 17.426 18.2126ZM13.6542 20.6409C13.5718 20.7092 13.4846 20.8677 13.4604 20.9931C13.4233 21.1851 13.4517 21.2563 13.6406 21.4452C13.8295 21.634 13.9008 21.6624 14.0928 21.6253C14.3829 21.5693 14.5694 21.3456 14.5694 21.0538C14.5694 20.604 14.0052 20.3495 13.6542 20.6409Z" stroke="white" stroke-width="0.5"/>
</svg>
