<svg width="24" height="24" viewBox="0 0 24 24" fill="none" xmlns="http://www.w3.org/2000/svg">
<path d="M23.6716 10.1999L21.28 5.41397C21.203 5.25977 21.0964 5.12225 20.9662 5.00925C20.8361 4.89626 20.685 4.81001 20.5215 4.75543C20.358 4.70084 20.1853 4.679 20.0134 4.69113C19.8415 4.70327 19.6736 4.74915 19.5194 4.82616L17.1232 6.02428L12.1422 4.70616C12.0482 4.68179 11.9494 4.68179 11.8553 4.70616L6.87441 6.02428L4.4791 4.82616C4.32485 4.74901 4.15691 4.70301 3.98488 4.69079C3.81285 4.67858 3.64009 4.7004 3.47649 4.75499C3.3129 4.80958 3.16166 4.89588 3.03143 5.00895C2.90121 5.12202 2.79454 5.25965 2.71754 5.41397L0.325973 10.1999C0.170381 10.5112 0.144799 10.8716 0.254854 11.2017C0.364909 11.5319 0.601589 11.8048 0.912848 11.9605L3.45816 13.2337L8.6716 16.9574C8.7281 16.9981 8.79168 17.028 8.8591 17.0455L14.8591 18.5455C14.9048 18.557 14.9517 18.5627 14.9988 18.5624C15.1479 18.5623 15.2909 18.5029 15.3963 18.3974L20.5816 13.2121L23.0847 11.9605C23.396 11.8048 23.6327 11.5319 23.7427 11.2017C23.8528 10.8716 23.8272 10.5112 23.6716 10.1999ZM18.7028 13.4962L15.3466 10.8074C15.2384 10.7208 15.1019 10.6772 14.9635 10.685C14.8251 10.6927 14.6944 10.7514 14.5966 10.8496C12.8482 12.6112 10.8935 12.389 9.64753 11.5921C9.62304 11.577 9.60235 11.5565 9.58707 11.5321C9.57178 11.5077 9.56232 11.4801 9.55941 11.4515C9.55609 11.4252 9.55865 11.3986 9.56692 11.3734C9.57519 11.3483 9.58896 11.3253 9.60722 11.3062L13.7266 7.31241H16.901L19.5644 12.6393L18.7028 13.4962ZM1.3216 10.8458C1.30609 10.7988 1.3098 10.7476 1.33191 10.7033L3.72441 5.91647C3.74013 5.88527 3.76427 5.85907 3.79408 5.84085C3.8239 5.82263 3.85822 5.8131 3.89316 5.81335C3.92212 5.81338 3.95068 5.82012 3.9766 5.83303L6.05878 6.87366L3.49753 11.9999L1.41535 10.9593C1.39288 10.9477 1.37299 10.9316 1.35688 10.9121C1.34077 10.8927 1.32877 10.8701 1.3216 10.8458ZM14.8263 17.3774L9.23878 15.9805L4.46691 12.5718L7.20253 7.10147L11.9988 5.8321L13.3863 6.1996C13.2802 6.22013 13.1824 6.2713 13.105 6.34678L8.82066 10.5046C8.68155 10.6436 8.57546 10.8121 8.51024 10.9977C8.44501 11.1832 8.42232 11.381 8.44383 11.5765C8.46534 11.772 8.53051 11.9602 8.63452 12.1271C8.73852 12.294 8.87871 12.4354 9.04472 12.5408C10.9403 13.7521 13.24 13.5243 15.026 11.9887L17.905 14.2968L14.8263 17.3774ZM22.676 10.8458C22.6683 10.8692 22.656 10.8909 22.6399 10.9096C22.6238 10.9282 22.6042 10.9435 22.5822 10.9546L20.5 11.9999L17.9388 6.87366L20.021 5.83303C20.043 5.82196 20.067 5.81535 20.0917 5.81358C20.1163 5.81181 20.141 5.81492 20.1644 5.82272C20.1878 5.83044 20.2095 5.84269 20.2281 5.85877C20.2468 5.87486 20.2621 5.89447 20.2732 5.91647L22.6657 10.7033C22.6878 10.7476 22.6915 10.7988 22.676 10.8458ZM12.176 20.3858C12.1399 20.5305 12.0478 20.655 11.92 20.7318C11.7922 20.8086 11.6391 20.8315 11.4944 20.7955L7.58222 19.8177C7.51473 19.8004 7.45111 19.7705 7.39472 19.7296L4.92253 17.9662C4.80107 17.8791 4.71916 17.7474 4.69481 17.6C4.67046 17.4526 4.70567 17.3015 4.79269 17.1801C4.87971 17.0586 5.01143 16.9767 5.15885 16.9523C5.30627 16.928 5.45732 16.9632 5.57878 17.0502L7.9591 18.7499L11.7663 19.7015C11.8381 19.7194 11.9057 19.7514 11.9652 19.7956C12.0247 19.8397 12.0748 19.8952 12.1128 19.9588C12.1508 20.0223 12.1758 20.0928 12.1865 20.1661C12.1972 20.2394 12.1933 20.3141 12.175 20.3858H12.176Z" fill="white"/>
</svg>
