<svg width="24" height="24" viewBox="0 0 24 24" fill="none" xmlns="http://www.w3.org/2000/svg">
<path fill-rule="evenodd" clip-rule="evenodd" d="M11.5773 2.0532C10.9362 2.21205 10.482 2.70665 10.3754 3.36196C10.252 4.11949 10.753 4.89905 11.5046 5.11924L11.685 5.17206L11.6733 5.76628L11.6617 6.36049L11.3225 6.39125C10.3555 6.47892 9.27068 6.92121 8.47016 7.55424L8.12736 7.82527L7.71245 7.40931L7.29755 6.99335L7.43336 6.72067C7.55778 6.4709 7.56917 6.41416 7.56917 6.04562C7.56917 5.69928 7.55382 5.61093 7.45906 5.4112C7.29574 5.06701 7.0401 4.80357 6.71346 4.64278C6.45171 4.51393 6.40184 4.5041 6.00812 4.5041C5.61439 4.5041 5.56453 4.51393 5.30277 4.64278C4.97888 4.80222 4.73788 5.0511 4.56355 5.4061C4.46111 5.6146 4.44706 5.69177 4.44706 6.04495C4.44706 6.41348 4.45845 6.46981 4.58519 6.72725C4.98963 7.54879 5.90543 7.85636 6.74038 7.45108L6.96631 7.34143L7.36269 7.73612C7.58065 7.95323 7.75903 8.14756 7.75903 8.16798C7.75903 8.18845 7.68621 8.29325 7.59723 8.40088C6.89834 9.24629 6.44159 10.3503 6.34041 11.4387L6.31244 11.7398H5.70671C5.20333 11.7398 5.10102 11.7294 5.10102 11.6781C5.10102 11.6442 5.05997 11.5065 5.0098 11.3722C4.9436 11.1951 4.848 11.0575 4.66173 10.8712C4.32332 10.5328 4.04152 10.4181 3.53996 10.4143C3.22176 10.412 3.14936 10.4268 2.89761 10.5457C2.5573 10.7063 2.28175 10.9762 2.11847 11.3087C2.01257 11.5243 2 11.5948 2 11.9725C2 12.3639 2.01008 12.4156 2.13712 12.6738C2.29968 13.0043 2.56426 13.2634 2.89972 13.4207C3.10894 13.5187 3.19235 13.5329 3.56106 13.5329C3.93803 13.5329 4.00866 13.5203 4.22421 13.4144C4.35686 13.3493 4.55233 13.2115 4.65861 13.1083C4.84526 12.9268 5.10093 12.4713 5.10097 12.3199C5.10102 12.2531 5.15793 12.2461 5.70502 12.2461H6.30902L6.35779 12.6575C6.48884 13.7633 6.89708 14.6927 7.68326 15.675L7.77679 15.7918L7.36539 16.2048L6.95395 16.6178L6.70051 16.4922C6.37792 16.3323 5.91116 16.2933 5.556 16.3966C4.64202 16.6623 4.17388 17.7125 4.58224 18.5811C4.7416 18.9199 4.9912 19.169 5.34728 19.3443C5.60018 19.4688 5.66274 19.4818 6.00812 19.4818C6.35193 19.4818 6.41661 19.4685 6.66296 19.3471C7.20009 19.0824 7.53981 18.5944 7.58023 18.0294C7.60234 17.7208 7.51922 17.3485 7.37628 17.1153L7.29633 16.9848L7.68824 16.5774C7.90379 16.3532 8.10335 16.1698 8.13166 16.1698C8.16001 16.1698 8.30422 16.2695 8.45214 16.3913C9.20655 17.0127 10.2347 17.4392 11.2925 17.5697L11.6828 17.6179L11.6834 18.3178C11.6837 18.7028 11.6944 19.0565 11.7071 19.104C11.727 19.1782 11.7003 19.1979 11.515 19.2454C10.9371 19.3935 10.4754 19.9185 10.3738 20.543C10.171 21.7893 11.5243 22.754 12.6647 22.1761C13.7279 21.6374 13.8102 20.1036 12.8105 19.4568C12.6767 19.3702 12.4719 19.2749 12.3557 19.2451C12.206 19.2068 12.1507 19.1739 12.1667 19.1325C12.179 19.1004 12.1891 18.7464 12.1891 18.346V17.6179L12.5833 17.5694C13.6464 17.4388 14.6392 17.025 15.4489 16.3752C15.5896 16.2622 15.7257 16.1698 15.7514 16.1698C15.777 16.1698 15.9761 16.3486 16.1937 16.5671L16.5893 16.9645L16.4997 17.1164C16.0355 17.9032 16.3599 18.9293 17.2044 19.3451C17.456 19.4689 17.5182 19.4818 17.8628 19.4811C18.1856 19.4806 18.28 19.4634 18.4845 19.3682C19.1362 19.0645 19.4774 18.5101 19.4374 17.8198C19.4035 17.234 19.088 16.7538 18.5691 16.4984C18.3069 16.3693 18.2578 16.3597 17.8608 16.3597C17.4658 16.3597 17.4154 16.3694 17.1788 16.4915L16.9233 16.6233L16.5112 16.2097C16.1028 15.7997 16.0998 15.7952 16.171 15.6981C16.2105 15.6443 16.3558 15.4484 16.4939 15.2627C16.8199 14.8247 17.0888 14.3037 17.2702 13.7589C17.4191 13.3115 17.5469 12.6864 17.5472 12.4043L17.5473 12.2461H18.1513H18.7554L18.826 12.4703C18.9195 12.7667 19.1321 13.0585 19.4029 13.262C19.6943 13.4809 19.9986 13.5669 20.4101 13.5466C20.9817 13.5184 21.4468 13.2197 21.7288 12.6997C21.8655 12.4475 21.8718 12.4165 21.8718 11.993C21.8718 11.5888 21.861 11.5279 21.7487 11.2991C21.5859 10.9675 21.3197 10.7088 20.9732 10.5452C20.7226 10.4269 20.6498 10.412 20.3319 10.4143C20.0667 10.4163 19.9112 10.4413 19.735 10.5102C19.3101 10.6765 18.9223 11.1065 18.8068 11.5394L18.7533 11.7398H18.1503H17.5473V11.5766C17.5473 11.3511 17.4345 10.7221 17.3324 10.3777C17.1357 9.71432 16.7716 9.01906 16.3401 8.48281C16.2151 8.32742 16.1128 8.18465 16.1128 8.16558C16.1128 8.14647 16.2923 7.95205 16.5117 7.73355L16.9107 7.33628L17.1341 7.44846C17.7632 7.76447 18.4251 7.67389 18.9347 7.20207C19.1023 7.04685 19.2187 6.89108 19.3024 6.70992C19.4102 6.47631 19.4248 6.39732 19.4248 6.04406C19.4248 5.69822 19.4094 5.61042 19.3125 5.40382C19.162 5.0827 18.9111 4.81998 18.5916 4.64907C18.3605 4.52545 18.2806 4.50587 17.9481 4.49144C17.5186 4.47284 17.232 4.55313 16.9193 4.77965C16.3288 5.20746 16.1187 6.07904 16.4473 6.73848L16.5743 6.99335L16.1591 7.40961L15.7439 7.82586L15.4959 7.62364C14.6447 6.92956 13.564 6.48141 12.5154 6.38775L12.2102 6.36049L12.1985 5.76505L12.1868 5.16966L12.3836 5.11456C12.7985 4.99841 13.2238 4.61658 13.3951 4.20661C13.7807 3.28373 13.2298 2.25128 12.2397 2.04117C11.9674 1.98342 11.8504 1.98553 11.5773 2.0532ZM12.4223 2.61733C12.6186 2.71838 12.8229 2.92499 12.9324 3.1329C12.9875 3.23766 13.0103 3.37246 13.0109 3.597C13.0116 3.86605 12.9946 3.94258 12.8974 4.10806C12.7403 4.37517 12.5266 4.55161 12.2664 4.62886C11.9907 4.71075 11.8804 4.7105 11.6009 4.62751C11.4396 4.57962 11.3203 4.50423 11.1738 4.35774C10.5813 3.76534 10.8278 2.80352 11.6403 2.53692C11.8143 2.47983 12.2405 2.52363 12.4223 2.61733ZM6.49154 5.07279C6.8764 5.2691 7.08158 5.60684 7.08305 6.04634C7.08563 6.81349 6.37184 7.32451 5.6441 7.07655C4.91247 6.82725 4.68046 5.83826 5.22569 5.29302C5.37648 5.14223 5.55976 5.03532 5.75497 4.98427C5.94217 4.93533 6.30835 4.97929 6.49154 5.07279ZM18.3903 5.09844C19.2062 5.54246 19.1046 6.77776 18.2277 7.07655C17.3648 7.37058 16.572 6.58461 16.8375 5.69839C16.8959 5.5033 17.1641 5.184 17.3517 5.08629C17.6808 4.91483 18.0612 4.9193 18.3903 5.09844ZM13.0559 6.96703C14.5125 7.32847 15.6276 8.14495 16.3759 9.39822C16.856 10.2021 17.1276 11.3326 17.0645 12.2639C16.9748 13.5871 16.4953 14.6504 15.5669 15.5846C14.8735 16.2824 14.1454 16.7068 13.2016 16.9632C12.8319 17.0636 12.7339 17.0721 11.9359 17.0722C11.1278 17.0723 11.0441 17.0649 10.6621 16.9594C9.05901 16.5166 7.79481 15.412 7.18828 13.9243C6.40707 12.0082 6.84573 9.82815 8.30722 8.36345C9.07399 7.59503 10.0269 7.0987 11.0962 6.91078C11.5891 6.82417 12.5967 6.85311 13.0559 6.96703ZM11.6594 8.20781C11.6118 8.236 11.3913 8.40623 11.1694 8.58605C10.9476 8.76587 10.7539 8.91303 10.7392 8.91303C10.7244 8.91303 10.7124 8.87421 10.7124 8.82675C10.7124 8.77928 10.6658 8.69385 10.6088 8.63689C10.5098 8.53787 10.4819 8.53331 9.9732 8.53331C9.68057 8.53331 9.40637 8.55192 9.36392 8.57462C9.23149 8.6455 9.19352 8.85822 9.19352 9.52889V10.1744L8.56462 10.6846C8.13677 11.0317 7.91273 11.2433 7.86371 11.3466C7.72667 11.6355 7.87286 12.0235 8.16478 12.1454C8.24178 12.1776 8.42881 12.2039 8.5804 12.2039H8.85599V13.5446C8.85599 15.0222 8.86426 15.0729 9.105 15.0729C9.36207 15.0729 9.36228 15.0714 9.36228 13.3955C9.36228 12.0678 9.3538 11.8639 9.29604 11.8062C9.20807 11.7182 9.11327 11.6997 8.68723 11.6871C8.17039 11.6718 8.18782 11.6255 8.94037 11.0138C9.27684 10.7403 9.58538 10.4764 9.62597 10.4273C9.68947 10.3507 9.6998 10.2441 9.6998 9.66778V8.99741H9.95295H10.2061V9.18453C10.2061 9.52572 10.3465 9.70988 10.5648 9.65512C10.6186 9.64162 10.9443 9.40269 11.2887 9.12415C11.633 8.84565 11.9254 8.61774 11.9383 8.61774C11.9512 8.61769 12.7676 9.26823 13.7525 10.0633C15.0258 11.0912 15.5432 11.5331 15.5432 11.5927C15.5432 11.6694 15.507 11.6783 15.115 11.6976C14.456 11.7301 14.5095 11.5812 14.5095 13.3824C14.5095 15.0425 14.5141 15.0729 14.7627 15.0729C15.0082 15.0729 15.0158 15.027 15.0158 13.5446V12.2039L15.3006 12.2038C15.7542 12.2037 16.0097 12.0239 16.0569 11.6714C16.1027 11.3301 16.0906 11.3179 14.1245 9.73031C13.1174 8.917 12.2521 8.22954 12.2018 8.20258C12.0832 8.13913 11.7704 8.14216 11.6594 8.20781ZM4.10363 11.038C4.7305 11.4053 4.82058 12.3128 4.2775 12.7896C4.05473 12.9852 3.85854 13.0601 3.56106 13.063C3.13341 13.0673 2.76635 12.8394 2.56034 12.4416C2.4503 12.2292 2.43832 11.795 2.5362 11.568C2.63556 11.3376 2.86259 11.1045 3.09666 10.9925C3.3882 10.8531 3.8215 10.8726 4.10363 11.038ZM20.7749 10.9953C21.7279 11.44 21.5741 12.8003 20.5429 13.0477C19.9353 13.1934 19.305 12.7264 19.2471 12.0874C19.1708 11.2466 20.0171 10.6416 20.7749 10.9953ZM12.4629 12.0789L11.6559 12.882L11.1929 12.4164C10.8082 12.0294 10.7086 11.9508 10.6031 11.9508C10.4416 11.9508 10.3749 12.0182 10.3749 12.1812C10.3749 12.2911 10.4619 12.3974 10.9555 12.8901C11.4399 13.3735 11.5569 13.4696 11.6612 13.4696C11.7677 13.4696 11.9216 13.3342 12.7048 12.5509C13.666 11.5897 13.7234 11.5082 13.5573 11.342C13.3951 11.1799 13.3054 11.2403 12.4629 12.0789ZM6.47222 16.926C6.666 17.0111 6.93821 17.295 7.02479 17.5021C7.10887 17.7033 7.09875 18.1374 7.00521 18.3427C6.74148 18.9211 6.08592 19.1638 5.53221 18.8878C5.14447 18.6947 4.93474 18.3519 4.93318 17.9088C4.93209 17.5909 4.99765 17.4191 5.20979 17.1844C5.54115 16.8175 6.00791 16.722 6.47222 16.926ZM18.3067 16.9142C18.8528 17.141 19.1136 17.8565 18.8433 18.3864C18.6395 18.7859 18.3041 18.9941 17.8614 18.9957C17.2565 18.9979 16.7904 18.5306 16.7892 17.9207C16.7884 17.5331 16.9443 17.2477 17.307 16.9728C17.524 16.8083 17.9865 16.7813 18.3067 16.9142ZM12.2571 19.734C12.5112 19.8095 12.792 20.0405 12.9173 20.2774C12.9887 20.4123 13.0098 20.5244 13.01 20.7686C13.0101 21.1191 12.9483 21.2808 12.7223 21.5212C12.498 21.7598 12.2954 21.8425 11.9359 21.8425C11.5583 21.8425 11.3493 21.7503 11.12 21.4824C10.7335 21.0308 10.756 20.4256 11.175 20.0066C11.4811 19.7006 11.84 19.6101 12.2571 19.734Z" stroke="white" stroke-width="0.5"/>
</svg>
