<svg width="24" height="24" viewBox="0 0 24 24" fill="none" xmlns="http://www.w3.org/2000/svg">
<path d="M6 18.9983H9.692V13.9213C9.692 13.6926 9.76967 13.5009 9.925 13.3463C10.0797 13.1909 10.2713 13.1133 10.5 13.1133H13.5C13.7287 13.1133 13.9207 13.1909 14.076 13.3463C14.2307 13.5009 14.308 13.6926 14.308 13.9213V18.9983H18V10.3063C18 10.2036 17.9777 10.1103 17.933 10.0263C17.8883 9.94228 17.8273 9.86895 17.75 9.80628L12.366 5.74828C12.2633 5.65895 12.1413 5.61428 12 5.61428C11.8587 5.61428 11.737 5.65895 11.635 5.74828L6.25 9.80628C6.17333 9.87028 6.11233 9.94361 6.067 10.0263C6.02167 10.1089 5.99933 10.2023 6 10.3063V18.9983ZM5 18.9983V10.3063C5 10.0503 5.05733 9.80795 5.172 9.57928C5.28667 9.35062 5.44467 9.16228 5.646 9.01428L11.031 4.93628C11.313 4.72095 11.635 4.61328 11.997 4.61328C12.359 4.61328 12.683 4.72095 12.969 4.93628L18.354 9.01328C18.556 9.16128 18.714 9.34995 18.828 9.57928C18.9427 9.80795 19 10.0503 19 10.3063V18.9983C19 19.2663 18.9003 19.4999 18.701 19.6993C18.5017 19.8986 18.268 19.9983 18 19.9983H14.116C13.8867 19.9983 13.6947 19.9209 13.54 19.7663C13.3853 19.6109 13.308 19.4189 13.308 19.1903V14.1143H10.692V19.1903C10.692 19.4196 10.6147 19.6116 10.46 19.7663C10.3053 19.9209 10.1137 19.9983 9.885 19.9983H6C5.732 19.9983 5.49833 19.8986 5.299 19.6993C5.09967 19.4999 5 19.2663 5 18.9983Z" fill="white"/>
</svg>
