<svg width="24" height="24" viewBox="0 0 24 24" fill="none" xmlns="http://www.w3.org/2000/svg">
<path d="M3 23H21M8.9814 15.2727C9.40864 15.755 9.94307 16.1281 10.5408 16.3612C11.1385 16.5943 11.7824 16.6808 12.4197 16.6137C13.057 16.5466 13.6694 16.3277 14.2066 15.975C14.7438 15.6223 15.1905 15.1459 15.51 14.5849C15.8296 14.0239 16.0127 13.3944 16.0446 12.748C16.0764 12.1016 15.9559 11.4568 15.6931 10.8666C15.4302 10.2764 15.0325 9.75757 14.5325 9.3528C14.0326 8.94802 13.4447 8.66884 12.8172 8.53818M12.8172 8.53818L10.65 10.7273L7.5 7.54545L12.423 2.57273C12.5743 2.4199 12.7539 2.29866 12.9515 2.21595C13.1492 2.13323 13.361 2.09066 13.575 2.09066C13.789 2.09066 14.0008 2.13323 14.1985 2.21595C14.3961 2.29866 14.5757 2.4199 14.727 2.57273L15.573 3.42727C15.7243 3.58007 15.8443 3.76148 15.9262 3.96114C16.0081 4.1608 16.0502 4.3748 16.0502 4.59091C16.0502 4.80702 16.0081 5.02102 15.9262 5.22068C15.8443 5.42034 15.7243 5.60175 15.573 5.75455L14.9322 6.40182M12.8172 8.53818L14.9322 6.40182M5.8116 15.2727C6.21228 16.1973 6.81068 17.0209 7.56383 17.6842C8.31698 18.3475 9.20618 18.8341 10.1676 19.1091M10.1676 19.1091C10.686 18.685 11.3329 18.4536 12 18.4536C12.6671 18.4536 13.314 18.685 13.8324 19.1091M10.1676 19.1091C9.84373 19.3729 9.58029 19.7044 9.3954 20.0809L8.85 21.1818C8.85 21.1818 7.95 23 6.15 23H17.85C16.05 23 15.15 21.1818 15.15 21.1818L14.6046 20.0809C14.4197 19.7044 14.1563 19.3729 13.8324 19.1091M7.05 10.2727L8.4 11.6364M3 13.9091H11.1M14.9322 6.40182C16.1664 7.00343 17.1902 7.97013 17.8676 9.17349C18.5449 10.3768 18.8438 11.7599 18.7244 13.1389C18.6051 14.5179 18.0732 15.8276 17.1994 16.894C16.3256 17.9603 15.1513 18.7329 13.8324 19.1091M15.15 3L16.14 2" stroke="white"/>
</svg>
