<svg width="22" height="24" viewBox="0 0 22 24" fill="none" xmlns="http://www.w3.org/2000/svg">
<path d="M11 11C10.2044 11 9.44129 10.6839 8.87868 10.1213C8.31607 9.55871 8 8.79565 8 8C8 7.20435 8.31607 6.44129 8.87868 5.87868C9.44129 5.31607 10.2044 5 11 5C11.7956 5 12.5587 5.31607 13.1213 5.87868C13.6839 6.44129 14 7.20435 14 8C14 8.79565 13.6839 9.55871 13.1213 10.1213C12.5587 10.6839 11.7956 11 11 11ZM11 6.2C10.004 6.2 9.2 7.004 9.2 8C9.2 8.996 10.004 9.8 11 9.8C11.996 9.8 12.8 8.996 12.8 8C12.8 7.004 11.996 6.2 11 6.2Z" fill="white"/>
<path d="M18.2 16.25C17.864 16.25 17.6 15.975 17.6 15.625C17.6 15.275 17.864 15 18.2 15C18.536 15 18.8 14.725 18.8 14.375C18.8 13.5462 18.4839 12.7513 17.9213 12.1653C17.3587 11.5792 16.5956 11.25 15.8 11.25H14.6C14.264 11.25 14 10.975 14 10.625C14 10.275 14.264 10 14.6 10C15.596 10 16.4 9.1625 16.4 8.125C16.4 7.0875 15.596 6.25 14.6 6.25C14.264 6.25 14 5.975 14 5.625C14 5.275 14.264 5 14.6 5C15.3956 5 16.1587 5.32924 16.7213 5.91529C17.2839 6.50134 17.6 7.2962 17.6 8.125C17.6 8.9 17.336 9.6 16.88 10.15C18.668 10.65 20 12.35 20 14.375C20 15.4125 19.196 16.25 18.2 16.25ZM3.8 16.25C2.804 16.25 2 15.4125 2 14.375C2 12.35 3.32 10.65 5.12 10.15C4.676 9.6 4.4 8.9 4.4 8.125C4.4 7.2962 4.71607 6.50134 5.27868 5.91529C5.84129 5.32924 6.60435 5 7.4 5C7.736 5 8 5.275 8 5.625C8 5.975 7.736 6.25 7.4 6.25C6.404 6.25 5.6 7.0875 5.6 8.125C5.6 9.1625 6.404 10 7.4 10C7.736 10 8 10.275 8 10.625C8 10.975 7.736 11.25 7.4 11.25H6.2C5.40435 11.25 4.64129 11.5792 4.07868 12.1653C3.51607 12.7513 3.2 13.5462 3.2 14.375C3.2 14.725 3.464 15 3.8 15C4.136 15 4.4 15.275 4.4 15.625C4.4 15.975 4.136 16.25 3.8 16.25ZM14.6 20H7.4C6.404 20 5.6 19.1625 5.6 18.125V16.875C5.6 14.4625 7.484 12.5 9.8 12.5H12.2C14.516 12.5 16.4 14.4625 16.4 16.875V18.125C16.4 19.1625 15.596 20 14.6 20ZM9.8 13.75C9.00435 13.75 8.24129 14.0792 7.67868 14.6653C7.11607 15.2513 6.8 16.0462 6.8 16.875V18.125C6.8 18.475 7.064 18.75 7.4 18.75H14.6C14.936 18.75 15.2 18.475 15.2 18.125V16.875C15.2 16.0462 14.8839 15.2513 14.3213 14.6653C13.7587 14.0792 12.9957 13.75 12.2 13.75H9.8Z" fill="white"/>
</svg>
