<svg width="24" height="24" viewBox="0 0 24 24" fill="none" xmlns="http://www.w3.org/2000/svg">
<path d="M20.4692 5.33333L15 10.7375V5.33333H13.5615L8.33333 10.6361V2H2V22H22V5.33333H20.4692ZM20.6667 20.6667H3.33333V3.33333H7V12.3333H8.53242L13.6667 7.12575V12.3333H15.2818L20.6667 7.0125V20.6667Z" fill="white"/>
<path d="M6 15.375V15.75H7.5V14.25H6V15.375ZM6 17.625H7.5V19.125H6V17.625ZM9.75 15.375V15.75H11.25V14.25H9.75V15.375ZM9.75 17.625H11.25V19.125H9.75V17.625ZM13.5 15.375V15.75H15V14.25H13.5V15.375ZM13.5 17.625H15V19.125H13.5V17.625ZM17.25 14.25H18.75V15.75H17.25V14.25ZM17.25 17.625H18.75V19.125H17.25V17.625Z" fill="white"/>
</svg>
