<svg width="24" height="24" viewBox="0 0 24 24" fill="none" xmlns="http://www.w3.org/2000/svg">
<path fill-rule="evenodd" clip-rule="evenodd" d="M12.6964 1.06015C12.8268 1.14955 12.9023 1.27873 12.9023 1.41232C12.9023 1.47477 12.9168 1.53502 12.9346 1.54618C12.9524 1.55737 13.0632 1.59945 13.1809 1.63971C14.1277 1.96353 14.9133 2.72002 15.3079 3.68778C15.5576 4.30033 15.5917 4.78274 15.4352 5.49096C15.3434 5.90611 15.3434 5.90661 15.3738 6.21033C15.4149 6.61993 15.3899 7.29871 15.3184 7.7182C15.1409 8.75933 14.7203 9.58969 14.0369 10.2479L13.7859 10.4897V11.1009C13.7859 11.5721 13.7933 11.7121 13.8183 11.7123C13.8362 11.7123 13.9411 11.6985 14.0514 11.6814C14.3677 11.6324 14.5469 11.7206 14.6298 11.9663L14.6641 12.0677L15.0748 12.1406C15.3752 12.194 15.4905 12.2054 15.504 12.1833C15.5141 12.1666 15.5304 12.0987 15.5402 12.0323C15.5539 11.9389 15.5825 11.8867 15.6668 11.8009C15.8486 11.6158 15.8441 11.6155 16.9538 11.897C17.9191 12.1418 17.9266 12.1442 18.0243 12.2437C18.1286 12.3498 18.1652 12.4633 18.1469 12.6232L18.1364 12.7148L18.3454 12.7991C19.4974 13.2636 20.3708 14.0115 20.8325 14.9288C21.0105 15.2824 21.0037 15.4455 20.803 15.6398C20.7275 15.7129 20.7062 15.7192 20.5343 15.7192C20.299 15.7192 20.2113 15.6628 20.112 15.4474C19.8026 14.7764 19.1508 14.1608 18.3282 13.7629C18.0225 13.6149 17.9698 13.5969 17.9698 13.6404C17.9698 13.6581 17.0463 18.9905 16.9398 19.5875L16.9245 19.6734H17.3144H17.7043L17.7137 19.3759C17.7216 19.1261 17.7323 19.0633 17.7802 18.9847C17.9564 18.6957 18.386 18.7109 18.535 19.0113C18.5935 19.1292 18.5935 19.1293 18.5935 20.5462V21.9633L18.535 22.0798C18.4565 22.2362 18.3662 22.298 18.1953 22.3125C18.0147 22.3277 17.8849 22.2672 17.792 22.1245L17.7229 22.0182L17.7149 21.2822L17.7069 20.5462H11.603H5.49902L5.49102 21.2822L5.48302 22.0182L5.41387 22.1245C5.32101 22.2672 5.19118 22.3277 5.0106 22.3125C4.83973 22.298 4.74945 22.2362 4.67092 22.0798L4.61245 21.9633V20.5462C4.61245 19.1293 4.61245 19.1292 4.67092 19.0113C4.8199 18.7109 5.24952 18.6957 5.42569 18.9847C5.47358 19.0633 5.48426 19.1261 5.49219 19.3759L5.50162 19.6734H5.87409C6.07895 19.6734 6.25189 19.6645 6.25842 19.6536C6.27248 19.6301 6.29828 19.7838 5.70487 16.3549C5.44565 14.857 5.22938 13.6272 5.22429 13.622C5.20651 13.6039 4.76697 13.8087 4.54109 13.9403C4.06012 14.2205 3.59043 14.6416 3.33989 15.0171C3.1919 15.2389 3.01872 15.6173 2.9459 15.8779L2.88678 16.0895L2.87254 19.0518C2.85937 21.7971 2.85503 22.0203 2.81324 22.0981C2.74554 22.224 2.62382 22.2998 2.468 22.3129C2.2929 22.3277 2.16164 22.2655 2.06991 22.1244L2.00076 22.018V19.0935C2.00076 15.856 1.99545 15.9697 2.17146 15.4293C2.54058 14.296 3.53786 13.3182 4.85732 12.7958L5.07432 12.7099L5.06083 12.6075C5.04261 12.4694 5.11546 12.2832 5.21917 12.2027C5.28151 12.1543 5.53052 12.0804 6.2428 11.899C6.76051 11.7671 7.21573 11.6592 7.25437 11.6592C7.36133 11.6592 7.52923 11.754 7.59321 11.8505C7.62468 11.8981 7.65807 11.9858 7.66743 12.0457C7.67676 12.1055 7.69254 12.1678 7.70244 12.1841C7.7154 12.2054 7.83598 12.1935 8.13091 12.1415L8.54132 12.0692L8.57583 11.967C8.65907 11.7206 8.83791 11.6323 9.15454 11.6814C9.26483 11.6985 9.36968 11.7123 9.38756 11.7123C9.41261 11.7121 9.42005 11.5721 9.42005 11.1009V10.4897L9.16899 10.2479C8.48561 9.58969 8.06498 8.75933 7.88752 7.7182C7.816 7.29871 7.79105 6.61993 7.83208 6.21033C7.86249 5.90661 7.86246 5.90611 7.77073 5.49096C7.61421 4.78274 7.64828 4.30033 7.89802 3.68778C8.29258 2.72002 9.07819 1.96353 10.025 1.63971C10.1427 1.59945 10.2536 1.55737 10.2713 1.54618C10.2891 1.53502 10.3036 1.47477 10.3036 1.41232C10.3036 1.27873 10.3791 1.14955 10.5095 1.06015C10.5969 1.00016 10.5998 1 11.603 1C12.6061 1 12.609 1.00016 12.6964 1.06015ZM12.0447 2.37839C12.0447 2.85107 12.0485 2.89072 12.1022 2.98803C12.2154 3.19309 12.4501 3.27001 12.6548 3.16916C12.8391 3.07838 12.9023 2.96301 12.9023 2.7175C12.9023 2.60692 12.9093 2.50935 12.9178 2.50064C12.9418 2.47628 13.2943 2.64807 13.4782 2.77374C13.8537 3.03024 14.1313 3.33156 14.3469 3.71672C14.4625 3.92316 14.5997 4.27568 14.6314 4.44765L14.6492 4.54425H11.6058C8.83144 4.54425 8.56247 4.54049 8.56247 4.50187C8.56247 4.41565 8.72463 3.96936 8.82578 3.77721C9.03825 3.37356 9.32462 3.05151 9.70073 2.7932C9.90717 2.65143 10.2624 2.47449 10.2881 2.50064C10.2966 2.50935 10.3036 2.59896 10.3036 2.69981C10.3036 2.9273 10.3544 3.04402 10.4942 3.13816C10.702 3.27797 10.9816 3.20907 11.1037 2.98803C11.1574 2.89072 11.1612 2.85107 11.1612 2.37839V1.87284H11.603H12.0447V2.37839ZM14.5257 5.55594C14.5156 5.61775 14.4834 5.73374 14.4542 5.81364C14.3862 5.99979 14.1581 6.23813 14.0037 6.28434C13.9236 6.30835 13.3223 6.31637 11.603 6.31637C9.8836 6.31637 9.28234 6.30835 9.20217 6.28434C9.04784 6.23813 8.81974 5.99979 8.75171 5.81364C8.7225 5.73374 8.69036 5.61775 8.68025 5.55594L8.66185 5.44353H11.603H14.5441L14.5257 5.55594ZM14.5013 7.2201C14.4219 8.07915 14.0918 8.88092 13.5909 9.43163C12.5134 10.6161 10.6949 10.6187 9.62017 9.43729C9.11512 8.88206 8.78417 8.08058 8.70462 7.2201L8.68669 7.02614L8.76904 7.06947C8.81431 7.0933 8.94025 7.13596 9.0489 7.16424C9.23744 7.2133 9.35407 7.21565 11.603 7.21565C13.8518 7.21565 13.9685 7.2133 14.157 7.16424C14.2657 7.13596 14.3916 7.0933 14.4369 7.06947L14.5192 7.02614L14.5013 7.2201ZM12.9023 11.422C12.9023 11.8233 12.8978 11.8685 12.8568 11.8805C12.8318 11.8878 12.5394 11.9389 12.2072 11.994L11.603 12.0942L10.9988 11.994C10.6664 11.9389 10.3741 11.8878 10.3491 11.8805C10.3081 11.8685 10.3036 11.8233 10.3036 11.422V10.9768L10.492 11.0417C10.7863 11.1432 11.2253 11.2095 11.603 11.2095C11.9806 11.2095 12.4196 11.1432 12.7139 11.0417L12.9023 10.9768V11.422ZM13.7859 13.0985V13.5591L12.9478 13.843C12.4868 13.9991 12.0951 14.1323 12.0772 14.1389C12.0518 14.1485 12.0447 14.0178 12.0447 13.5404V12.9298L12.1032 12.9162C12.188 12.8964 13.7256 12.6378 13.7583 12.6378C13.7767 12.6378 13.7859 12.7917 13.7859 13.0985ZM10.3426 12.7844C10.7857 12.862 11.1511 12.9262 11.1547 12.9271C11.1583 12.928 11.1612 13.2038 11.1612 13.5399C11.1612 14.0177 11.1541 14.1485 11.1287 14.1389C11.1108 14.1323 10.7191 13.9991 10.2581 13.843L9.42005 13.5591V13.0985V12.6378L9.47852 12.6406C9.51066 12.6422 9.89951 12.7069 10.3426 12.7844ZM16.8085 12.7693C17.0203 12.8249 17.1976 12.8747 17.2027 12.8798C17.2128 12.8902 16.058 19.5789 16.036 19.6372C16.0253 19.6658 15.9343 19.6734 15.6058 19.6734C15.1906 19.6734 15.1892 19.6732 15.1907 19.6139C15.1916 19.5812 15.4464 18.0071 15.7569 16.1159C16.2794 12.9336 16.3253 12.6772 16.3725 12.6728C16.4006 12.6702 16.5968 12.7137 16.8085 12.7693ZM6.88533 12.6973C6.90235 12.7517 8.01675 19.5785 8.01675 19.6285C8.01675 19.6706 7.97987 19.6744 7.59937 19.672C7.29345 19.6701 7.17869 19.6606 7.16965 19.6366C7.14917 19.5823 5.99389 12.8898 6.00328 12.88C6.01552 12.8672 6.801 12.6657 6.84164 12.6649C6.85996 12.6646 6.87961 12.6792 6.88533 12.6973ZM14.8124 12.9951C14.8266 13.0002 14.9523 13.0245 15.0917 13.049C15.315 13.0884 15.3451 13.1001 15.3451 13.1476C15.3451 13.1991 14.3209 19.4903 14.2924 19.6139L14.2786 19.6734H13.1615H12.0444L12.0511 17.3811L12.0577 15.0888L13.2367 14.6888C14.515 14.2552 14.5596 14.2339 14.6308 14.0264C14.6565 13.9518 14.6675 13.7824 14.6683 13.4511L14.6694 12.9817L14.7279 12.9838C14.7601 12.9849 14.7981 12.99 14.8124 12.9951ZM8.53763 13.4511C8.53844 13.7824 8.54946 13.9518 8.57508 14.0264C8.64631 14.2339 8.69096 14.2552 9.96918 14.6888L11.1482 15.0888L11.1548 17.3811L11.1615 19.6734H10.0444H8.92728L8.91369 19.6139C8.88529 19.4895 7.86083 13.1905 7.86083 13.1402C7.86083 13.1112 7.87055 13.0875 7.88242 13.0875C7.89427 13.0875 8.03169 13.0638 8.18777 13.035C8.34382 13.0061 8.48613 12.9823 8.504 12.9821C8.52874 12.9818 8.53675 13.0936 8.53763 13.4511ZM20.9973 16.6694C21.1975 16.7921 21.2665 17.032 21.1613 17.2398C21.0767 17.407 20.9619 17.4781 20.7764 17.4781C20.5908 17.4781 20.4754 17.4066 20.3931 17.2408C20.3187 17.091 20.3192 16.9872 20.395 16.8408C20.5115 16.6161 20.7837 16.5386 20.9973 16.6694ZM20.9458 18.4143C21.0683 18.4686 21.1863 18.623 21.2048 18.7532C21.2137 18.8156 21.2174 19.5758 21.213 20.4424L21.2052 22.0181L21.136 22.1244C21.0442 22.2655 20.913 22.3277 20.7379 22.3129C20.5695 22.2987 20.4495 22.2162 20.3841 22.0697C20.3386 21.9678 20.3357 21.8643 20.3352 20.3536C20.3345 18.6065 20.3314 18.6469 20.4808 18.5047C20.6139 18.378 20.7878 18.3442 20.9458 18.4143Z" fill="white"/>
</svg>
