<svg width="24" height="24" viewBox="0 0 24 24" fill="none" xmlns="http://www.w3.org/2000/svg">
<path fill-rule="evenodd" clip-rule="evenodd" d="M10.75 12.625C10.7502 12.1276 10.9479 11.6505 11.2998 11.2989C11.474 11.1248 11.6808 10.9867 11.9084 10.8925C12.136 10.7984 12.3799 10.7499 12.6263 10.75C12.8726 10.7501 13.1164 10.7987 13.344 10.893C13.5715 10.9873 13.7782 11.1256 13.9523 11.2998C14.1264 11.474 14.2645 11.6808 14.3587 11.9084C14.4529 12.136 14.5013 12.3799 14.5013 12.6263C14.5011 13.1237 14.3033 13.6007 13.9515 13.9523C13.5996 14.304 13.1224 14.5014 12.625 14.5013C12.1276 14.5011 11.6505 14.3033 11.2989 13.9515C10.9473 13.5996 10.7498 13.1224 10.75 12.625ZM12.625 12C12.4592 12 12.3003 12.0658 12.1831 12.1831C12.0658 12.3003 12 12.4592 12 12.625C12 12.7908 12.0658 12.9497 12.1831 13.0669C12.3003 13.1842 12.4592 13.25 12.625 13.25C12.7908 13.25 12.9497 13.1842 13.0669 13.0669C13.1842 12.9497 13.25 12.7908 13.25 12.625C13.25 12.4592 13.1842 12.3003 13.0669 12.1831C12.9497 12.0658 12.7908 12 12.625 12Z" fill="white"/>
<path fill-rule="evenodd" clip-rule="evenodd" d="M8.25 18.875V14.5H5.125C4.2962 14.5 3.50134 14.1708 2.91529 13.5847C2.32924 12.9987 2 12.2038 2 11.375V5.125C2 4.2962 2.32924 3.50134 2.91529 2.91529C3.50134 2.32924 4.2962 2 5.125 2L13.875 2C14.2854 2 14.6917 2.08083 15.0709 2.23788C15.45 2.39492 15.7945 2.62511 16.0847 2.91529C16.3749 3.20547 16.6051 3.54997 16.7621 3.92911C16.9192 4.30826 17 4.71462 17 5.125V8.25H18.875C19.7038 8.25 20.4987 8.57924 21.0847 9.16529C21.6708 9.75134 22 10.5462 22 11.375V18.875C22 19.7038 21.6708 20.4987 21.0847 21.0847C20.4987 21.6708 19.7038 22 18.875 22H11.375C10.5462 22 9.75134 21.6708 9.16529 21.0847C8.57924 20.4987 8.25 19.7038 8.25 18.875ZM3.25 5.125C3.25 4.62772 3.44754 4.15081 3.79917 3.79917C4.15081 3.44754 4.62772 3.25 5.125 3.25H5.75V5.75H3.25V5.125ZM3.25 7H5.75V9.5H3.25V7ZM3.25 10.75H5.75V13.25H5.125C4.62772 13.25 4.15081 13.0525 3.79917 12.7008C3.44754 12.3492 3.25 11.8723 3.25 11.375V10.75ZM7 13.25V3.25H12V8.25H11.375C10.5462 8.25 9.75134 8.57924 9.16529 9.16529C8.57924 9.75134 8.25 10.5462 8.25 11.375V13.25H7ZM15.75 8.25V7H13.25V8.25H15.75ZM15.75 5.125V5.75H13.25V3.25H13.875C14.3723 3.25 14.8492 3.44754 15.2008 3.79917C15.5525 4.15081 15.75 4.62772 15.75 5.125ZM11.375 9.5C10.8777 9.5 10.4008 9.69754 10.0492 10.0492C9.69754 10.4008 9.5 10.8777 9.5 11.375V18.875C9.5 19.4862 9.7925 20.0287 10.245 20.375L17.1825 13.4375C17.2997 13.3203 17.4586 13.2545 17.6244 13.2545C17.7901 13.2545 17.949 13.3203 18.0662 13.4375L20.7537 16.125V11.3875C20.7537 10.8902 20.5562 10.4133 20.2046 10.0617C19.8529 9.71004 19.376 9.5125 18.8787 9.5125H11.3787L11.375 9.5ZM20.75 17.8875L17.625 14.7625L11.6375 20.75H18.875C19.3723 20.75 19.8492 20.5525 20.2008 20.2008C20.5525 19.8492 20.75 19.3723 20.75 18.875V17.8837V17.8875Z" fill="white"/>
</svg>
