<svg width="24" height="24" viewBox="0 0 24 24" fill="none" xmlns="http://www.w3.org/2000/svg">
<path d="M6.616 21C6.15533 21 5.771 20.846 5.463 20.538C5.155 20.23 5.00067 19.8457 5 19.385V4.615C5 4.155 5.15433 3.771 5.463 3.463C5.77167 3.155 6.156 3.00067 6.616 3H17.385C17.845 3 18.2293 3.15433 18.538 3.463C18.8467 3.77167 19.0007 4.156 19 4.616V19.385C19 19.845 18.846 20.2293 18.538 20.538C18.23 20.8467 17.8453 21.0007 17.384 21H6.616ZM6.616 20H17.385C17.5383 20 17.6793 19.936 17.808 19.808C17.9367 19.68 18.0007 19.5387 18 19.384V4.616C18 4.462 17.936 4.32067 17.808 4.192C17.68 4.06333 17.5387 3.99933 17.384 4H16V9.414C16 9.57533 15.9327 9.69533 15.798 9.774C15.6633 9.85267 15.5257 9.84867 15.385 9.762L14.409 9.184C14.2683 9.09733 14.1297 9.054 13.993 9.054C13.8563 9.054 13.7177 9.09733 13.577 9.184L12.602 9.762C12.4607 9.84867 12.325 9.85267 12.195 9.774C12.065 9.69533 12 9.57533 12 9.414V4H6.616C6.462 4 6.32067 4.064 6.192 4.192C6.06333 4.32 5.99933 4.461 6 4.615V19.385C6 19.5383 6.064 19.6793 6.192 19.808C6.32 19.9367 6.461 20.0007 6.615 20M12 9.433V9.414C12 9.57533 12.065 9.69533 12.195 9.774C12.325 9.85267 12.4607 9.84867 12.602 9.762L13.577 9.184C13.7177 9.09733 13.8563 9.054 13.993 9.054C14.1297 9.054 14.2683 9.09733 14.409 9.184L15.384 9.762C15.5253 9.84867 15.6633 9.85267 15.798 9.774C15.9327 9.69533 16 9.57533 16 9.414V9.433C16 9.58167 15.9327 9.69533 15.798 9.774C15.6633 9.85267 15.5253 9.855 15.384 9.781L14.409 9.184C14.2683 9.09733 14.1297 9.054 13.993 9.054C13.8563 9.054 13.7177 9.09733 13.577 9.184L12.602 9.781C12.4607 9.855 12.325 9.85267 12.195 9.774C12.065 9.69533 12 9.58167 12 9.433Z" fill="white"/>
</svg>
