<svg width="24" height="24" viewBox="0 0 24 24" fill="none" xmlns="http://www.w3.org/2000/svg">
<path d="M18.8575 2H13.5067C13.3404 1.99988 13.1808 2.06561 13.0628 2.18281L2.36563 12.8773C2.13146 13.1127 2 13.4311 2 13.7631C2 14.0951 2.13146 14.4136 2.36563 14.6489L7.45826 19.7415C7.69365 19.9757 8.0122 20.1072 8.34425 20.1072C8.6763 20.1072 8.99484 19.9757 9.23024 19.7415L19.9243 9.05134C20.0415 8.93332 20.1073 8.7737 20.1071 8.60737V3.25357C20.1079 3.08906 20.0762 2.92601 20.0137 2.77381C19.9513 2.62161 19.8593 2.48327 19.7432 2.36676C19.627 2.25025 19.489 2.15786 19.337 2.09491C19.185 2.03197 19.022 1.99971 18.8575 2Z" stroke="white" stroke-width="0.928571" stroke-linecap="round" stroke-linejoin="round"/>
<path d="M16.6233 6.87556C16.3478 6.87556 16.0786 6.79387 15.8495 6.64082C15.6204 6.48777 15.4419 6.27024 15.3365 6.01573C15.2311 5.76121 15.2035 5.48116 15.2572 5.21097C15.311 4.94078 15.4436 4.6926 15.6384 4.4978C15.8332 4.30301 16.0814 4.17035 16.3516 4.11661C16.6218 4.06286 16.9018 4.09045 17.1564 4.19587C17.4109 4.30129 17.6284 4.47982 17.7814 4.70887C17.9345 4.93793 18.0162 5.20722 18.0162 5.4827C18.0162 5.85211 17.8694 6.20639 17.6082 6.4676C17.347 6.72881 16.9927 6.87556 16.6233 6.87556Z" fill="white"/>
<path d="M11.3164 21.5006L22.7204 10.0965C22.7771 10.0394 22.8218 9.97137 22.8517 9.89659C22.8816 9.82182 22.8962 9.74179 22.8945 9.66127V4.08984" stroke="white" stroke-width="0.928571" stroke-linecap="round" stroke-linejoin="round"/>
</svg>
