<svg width="24" height="24" viewBox="0 0 24 24" fill="none" xmlns="http://www.w3.org/2000/svg">
<path d="M10.8507 17.1289V10.9853L4.30845 7.71423V16.7098L9.86934 19.5005L9.55245 20.7987L3 17.5276V6.24223L11.5049 2L20.0098 6.24223V9.00223C19.5328 9.0772 19.0966 9.23053 18.7014 9.46223V7.71423L12.1591 10.9853V15.8205L10.8507 17.1289ZM9.39912 4.50445L15.3689 7.91868L17.8938 6.65112L11.5049 3.45156L9.39912 4.50445ZM11.5049 9.85068L13.9582 8.62401L7.98845 5.20978L5.116 6.65112L11.5049 9.85068ZM20.5822 10.5765C20.8685 10.5765 21.1343 10.6276 21.3796 10.7298C21.6249 10.832 21.843 10.9717 22.0338 11.1489C22.2246 11.3261 22.3677 11.5408 22.4631 11.7929C22.5585 12.0451 22.6131 12.3142 22.6267 12.6005C22.6267 12.8662 22.5756 13.1252 22.4734 13.3774C22.3711 13.6295 22.2246 13.851 22.0338 14.0418L14.7045 21.3711L10.8507 22.332L11.8116 18.4782L19.1409 11.1591C19.3385 10.9615 19.56 10.815 19.8054 10.7196C20.0507 10.6242 20.3097 10.5765 20.5822 10.5765ZM21.1036 13.1218C21.2467 12.9787 21.3183 12.8049 21.3183 12.6005C21.3183 12.3892 21.2501 12.2188 21.1138 12.0893C20.9775 11.9599 20.8003 11.8917 20.5822 11.8849C20.4868 11.8849 20.3948 11.8985 20.3062 11.9258C20.2177 11.9531 20.1393 12.0042 20.0711 12.0791L12.9973 19.1529L12.6498 20.5329L14.0298 20.1854L21.1036 13.1218Z" fill="white"/>
</svg>
