<svg width="24" height="24" viewBox="0 0 24 24" fill="none" xmlns="http://www.w3.org/2000/svg">
<path d="M3.25 19.3643C3.25 19.5388 3.28255 19.7003 3.34766 19.8488C3.41276 19.9974 3.50065 20.1266 3.61133 20.2364C3.72201 20.3463 3.85547 20.4367 4.01172 20.5078C4.16797 20.5788 4.33073 20.6111 4.5 20.6047H10.75L13.2598 21.845H4.5C4.15495 21.845 3.83268 21.7804 3.5332 21.6512C3.23372 21.522 2.9668 21.3443 2.73242 21.1182C2.49805 20.8921 2.31901 20.6305 2.19531 20.3333C2.07161 20.0362 2.00651 19.7132 2 19.3643V4.48062C2 4.16408 2.06836 3.85724 2.20508 3.56008C2.3418 3.26292 2.52734 2.99806 2.76172 2.7655C2.99609 2.53295 3.26302 2.34884 3.5625 2.21318C3.86198 2.07752 4.17448 2.00646 4.5 2H18.25V8.59884L17 7.97868V3.24031H4.5C4.35026 3.24031 4.20052 3.27584 4.05078 3.3469C3.90104 3.41796 3.76758 3.51486 3.65039 3.6376C3.5332 3.76034 3.4388 3.89276 3.36719 4.03488C3.29557 4.177 3.25651 4.32558 3.25 4.48062V17.2326C3.4388 17.1227 3.63737 17.0388 3.8457 16.9806C4.05404 16.9225 4.27214 16.8902 4.5 16.8837H9.5V18.124H4.5C4.32422 18.124 4.16146 18.1563 4.01172 18.2209C3.86198 18.2855 3.73177 18.3727 3.62109 18.4826C3.51042 18.5924 3.41927 18.7248 3.34766 18.8798C3.27604 19.0349 3.24349 19.1964 3.25 19.3643ZM22 11.8353V19.219L16.375 22L10.75 19.219V11.8353L16.375 9.05426L22 11.8353ZM16.375 10.4399L12.7715 12.2229L16.375 14.0058L19.9785 12.2229L16.375 10.4399ZM12 18.4535L15.75 20.3043V15.0814L12 13.2209V18.4535ZM20.75 18.4535V13.2209L17 15.0814V20.3043L20.75 18.4535Z" fill="white"/>
</svg>
