<svg width="24" height="24" viewBox="0 0 24 24" fill="none" xmlns="http://www.w3.org/2000/svg">
<path d="M16.976 2.54241C16.976 2.39855 17.0301 2.26059 17.1264 2.15887C17.2227 2.05715 17.3534 2 17.4896 2H19.2018C19.338 2 19.4686 2.05715 19.565 2.15887C19.6613 2.26059 19.7154 2.39855 19.7154 2.54241V4.35045C19.7154 4.4943 19.6613 4.63227 19.565 4.73399C19.4686 4.83571 19.338 4.89286 19.2018 4.89286C19.0655 4.89286 18.9349 4.83571 18.8386 4.73399C18.7422 4.63227 18.6881 4.4943 18.6881 4.35045V3.85143L15.6268 7.0842C15.5305 7.18577 15.3999 7.24283 15.2638 7.24283C15.1277 7.24283 14.9971 7.18577 14.9008 7.0842L13.2092 5.29786L10.3191 8.34982C10.2721 8.40311 10.2154 8.44586 10.1524 8.4755C10.0894 8.50515 10.0214 8.52109 9.95239 8.52237C9.88343 8.52366 9.81492 8.51026 9.75096 8.48298C9.68701 8.4557 9.62891 8.4151 9.58013 8.36359C9.53136 8.31208 9.4929 8.25073 9.46707 8.18319C9.44124 8.11565 9.42855 8.04331 9.42977 7.97048C9.43098 7.89765 9.44608 7.82582 9.47415 7.75929C9.50223 7.69275 9.5427 7.63287 9.59317 7.58321L12.8463 4.14795C12.9426 4.04637 13.0731 3.98932 13.2092 3.98932C13.3453 3.98932 13.4759 4.04637 13.5722 4.14795L15.2638 5.93429L17.9622 3.08482H17.4896C17.3534 3.08482 17.2227 3.02767 17.1264 2.92595C17.0301 2.82423 16.976 2.68627 16.976 2.54241ZM9.95615 10.6786C10.0924 10.6786 10.223 10.7357 10.3193 10.8374C10.4157 10.9392 10.4698 11.0771 10.4698 11.221V13.029C10.4698 13.1729 10.4157 13.3108 10.3193 13.4126C10.223 13.5143 10.0924 13.5714 9.95615 13.5714C9.81992 13.5714 9.68927 13.5143 9.59294 13.4126C9.49662 13.3108 9.4425 13.1729 9.4425 13.029V11.221C9.4425 11.0771 9.49662 10.9392 9.59294 10.8374C9.68927 10.7357 9.81992 10.6786 9.95615 10.6786ZM13.2092 9.05134C13.2092 8.90748 13.1551 8.76952 13.0588 8.6678C12.9625 8.56608 12.8318 8.50893 12.6956 8.50893C12.5594 8.50893 12.4287 8.56608 12.3324 8.6678C12.2361 8.76952 12.1819 8.90748 12.1819 9.05134V13.029C12.1819 13.1729 12.2361 13.3108 12.3324 13.4126C12.4287 13.5143 12.5594 13.5714 12.6956 13.5714C12.8318 13.5714 12.9625 13.5143 13.0588 13.4126C13.1551 13.3108 13.2092 13.1729 13.2092 13.029V9.05134ZM15.435 9.95536C15.5713 9.95536 15.7019 10.0125 15.7982 10.1142C15.8946 10.2159 15.9487 10.3539 15.9487 10.4978V13.029C15.9487 13.1729 15.8946 13.3108 15.7982 13.4126C15.7019 13.5143 15.5713 13.5714 15.435 13.5714C15.2988 13.5714 15.1682 13.5143 15.0718 13.4126C14.9755 13.3108 14.9214 13.1729 14.9214 13.029V10.4978C14.9214 10.3539 14.9755 10.2159 15.0718 10.1142C15.1682 10.0125 15.2988 9.95536 15.435 9.95536ZM18.6881 7.60491C18.6881 7.46105 18.634 7.32309 18.5377 7.22137C18.4413 7.11965 18.3107 7.0625 18.1745 7.0625C18.0382 7.0625 17.9076 7.11965 17.8113 7.22137C17.7149 7.32309 17.6608 7.46105 17.6608 7.60491V13.029C17.6608 13.1729 17.7149 13.3108 17.8113 13.4126C17.9076 13.5143 18.0382 13.5714 18.1745 13.5714C18.3107 13.5714 18.4413 13.5143 18.5377 13.4126C18.634 13.3108 18.6881 13.1729 18.6881 13.029V7.60491Z" fill="white"/>
<path d="M20.3225 17.0406C20.1136 16.8797 19.8703 16.7693 19.6116 16.7179C19.353 16.6666 19.086 16.6758 18.8314 16.7447L15.381 17.5379C15.4941 17.2378 15.5327 16.9148 15.4936 16.5964C15.4544 16.2781 15.3386 15.9741 15.1562 15.7103C14.9737 15.4466 14.73 15.231 14.446 15.0821C14.1619 14.9332 13.846 14.8555 13.5253 14.8555H9.70721C9.40662 14.8546 9.10885 14.9134 8.83116 15.0285C8.55347 15.1436 8.30138 15.3127 8.08952 15.5259L6.31928 17.2961H4.06778C3.78459 17.2961 3.513 17.4086 3.31275 17.6089C3.1125 17.8091 3 18.0807 3 18.3639V21.4147C3 21.6979 3.1125 21.9695 3.31275 22.1698C3.513 22.37 3.78459 22.4825 4.06778 22.4825H11.9999C12.0374 22.4825 12.0748 22.4779 12.1112 22.4688L16.9925 21.2485C17.0157 21.2424 17.0383 21.2347 17.0604 21.2256L20.0212 19.9656L20.0464 19.9541C20.3082 19.8234 20.5324 19.6282 20.6979 19.3869C20.8634 19.1455 20.9647 18.8661 20.9923 18.5747C21.0199 18.2834 20.9729 17.9899 20.8557 17.7218C20.7386 17.4536 20.5551 17.2198 20.3225 17.0421V17.0406ZM3.91524 21.4147V18.3639C3.91524 18.3235 3.93131 18.2847 3.95992 18.256C3.98853 18.2274 4.02733 18.2114 4.06778 18.2114H6.05081V21.5673H4.06778C4.02733 21.5673 3.98853 21.5512 3.95992 21.5226C3.93131 21.494 3.91524 21.4552 3.91524 21.4147ZM19.6483 19.1266L16.7348 20.3675L11.9435 21.5673H6.96605V17.9437L8.73629 16.1727C8.8635 16.0448 9.01482 15.9434 9.18148 15.8744C9.34814 15.8054 9.52683 15.7702 9.70721 15.7707H13.5253C13.8085 15.7707 14.0801 15.8832 14.2803 16.0835C14.4806 16.2837 14.5931 16.5553 14.5931 16.8385C14.5931 17.1217 14.4806 17.3933 14.2803 17.5935C14.0801 17.7938 13.8085 17.9063 13.5253 17.9063H11.3897C11.2684 17.9063 11.152 17.9545 11.0661 18.0403C10.9803 18.1261 10.9321 18.2425 10.9321 18.3639C10.9321 18.4853 10.9803 18.6017 11.0661 18.6875C11.152 18.7733 11.2684 18.8215 11.3897 18.8215H13.8304C13.8648 18.8216 13.8991 18.8177 13.9326 18.8101L19.0427 17.6348L19.061 17.6302C19.2533 17.5778 19.4583 17.5982 19.6364 17.6877C19.8146 17.7771 19.9534 17.9293 20.0262 18.1148C20.0991 18.3004 20.1008 18.5063 20.031 18.6931C19.9612 18.8798 19.8249 19.0342 19.6483 19.1266Z" fill="white"/>
</svg>
