<svg width="24" height="24" viewBox="0 0 24 24" fill="none" xmlns="http://www.w3.org/2000/svg">
<path d="M11.4003 10.1992C11.0321 10.375 10.7116 10.6366 10.4655 10.962C10.2194 11.2873 10.0549 11.667 9.98594 12.069C9.91696 12.4711 9.94545 12.8839 10.069 13.2727C10.1926 13.6615 10.4076 14.0149 10.6961 14.3034C10.9846 14.5918 11.338 14.8069 11.7268 14.9305C12.1156 15.054 12.5284 15.0825 12.9304 15.0135C13.3325 14.9445 13.7122 14.7801 14.0375 14.534C14.3629 14.2879 14.6244 13.9673 14.8003 13.5992" stroke="white" stroke-linecap="round" stroke-linejoin="round"/>
<path d="M14.3206 7.28256C13.7511 7.08494 13.1391 6.97656 12.5016 6.97656C9.45006 6.97656 6.97656 9.45006 6.97656 12.5016C6.97656 15.5531 9.45006 18.0266 12.5016 18.0266C15.5531 18.0266 18.0266 15.5531 18.0266 12.5016C18.0266 11.8641 17.9186 11.2521 17.7206 10.6826" stroke="white" stroke-linecap="round" stroke-linejoin="round"/>
<path d="M16.5664 5.03404C15.3193 4.35327 13.9208 3.99765 12.5 4.00001C7.80545 4.00001 4 7.80546 4 12.5C4 17.1946 7.80545 21 12.5 21C17.1945 21 21 17.1946 21 12.5C21.0024 11.0794 20.6469 9.68104 19.9664 8.43403M21 4.00001L12.5 12.5" stroke="white" stroke-linecap="round" stroke-linejoin="round"/>
</svg>
